<svg xmlns="http://www.w3.org/2000/svg" viewBox="0 0 203.04 185.48"><defs><style>.cls-1{fill:#2c95e1;}.cls-2{fill:#2f353a;}.cls-3{fill:#2f3439;}.cls-4{fill:#31363b;}.cls-5{fill:#30363b;}.cls-6{fill:#31373c;}.cls-7{fill:#fff;}</style></defs><title>Tipsy Logo</title><g id="Layer_1" data-name="Layer 1"><path class="cls-1" d="M125.18,111.39a19.69,19.69,0,0,1-.54-3.08c.23-7-2.66-11.49-9.76-13.29-4.17-1.06-5.39-4.56-5.1-8.58a346.47,346.47,0,0,1,6.36-45c1-4.61,3.63-6.43,8-6.45a137.31,137.31,0,0,1,44.71,7.06c4.17,1.41,5.59,3.53,4.79,8.15C171,65.75,167.41,81,161,95.45c-4.46,10-4.85,10-15.65,8.78-3.63-.42-7.36-3.15-11.05-.35C131.41,106.07,128.69,108.48,125.18,111.39Zm8.09-41.83" transform="translate(-26.39 -35)"/><path class="cls-2" d="M108.09,136.62c6.34-6.56,12.75-10.89,20.79-12.3s12.8,2.57,12.93,10.6c.17,11.2-5.66,19.41-13.59,26.41a44.75,44.75,0,0,1-19.76,10.24c-3,.7-4.07,2-4.15,5.13C104,188.58,103.22,200.44,107,212c1.1,3.33,1.18,6.7-3.1,8.06-4.1,1.3-6.62-.59-8.17-4.32a39.94,39.94,0,0,1-2.69-13.92c-.23-6.21-.06-12.44-.07-18.66,0-2.93.67-6.09-.21-8.73-1.11-3.28-5.07-1.74-7.65-2.77-7.42-3-12.14-7.89-13.16-16-1.42-11.37,0-22.63,1.46-33.88.55-4.19,3.31-4.87,6.74-4.32s5.77,2.27,5.1,6.31C84.06,131,82.77,138.2,83,145.56c.12,4.3,1,8.36,4.07,11.61a5.77,5.77,0,0,0,5.44,2c2.72-.58,1.4-3,1.57-4.54,1.24-11.09,2.51-22.16,5.27-33,.61-2.38,1.4-4.52,3.7-5.8a6.71,6.71,0,0,1,6.8-.29c1.89,1.12.83,3.36.58,5.09C109.69,125.63,108,130.52,108.09,136.62ZM107.7,161c7,.15,22.28-13.92,22.22-21,0-3.87-2.69-4.59-5.73-3.3-9.73,4.11-15.37,11.93-18.9,21.53C104.65,160,105.28,161.06,107.7,161Z" transform="translate(-26.39 -35)"/><path class="cls-3" d="M43.06,150.51c.43-17.42,3.38-34.15,6.59-50.86,1.2-6.23.28-7.13-5.6-5.06-3.79,1.32-7.37,3.24-11.19,4.44-5,1.58-7.25-.78-6.22-5.91a10.37,10.37,0,0,1,5.21-7.37C48.46,76.48,66,70,85.2,69.12a26.73,26.73,0,0,1,6,.57c4.46.83,6.59,3.42,6.11,8.13s-3.1,6.19-7.36,6.34a78.73,78.73,0,0,0-26.75,5.27c-3.08,1.24-6.58,2.45-1.11,5.75,3,1.82,1.13,5.11.74,7.55-2.13,13.55-4,27.11-4.08,40.87-.06,9.71.14,19.38,3.92,28.57,1.19,2.9.63,5.46-2.1,7.17-3.63,2.28-7.3,2.3-10.59-.69-4.52-4.11-5.48-9.82-6.3-15.4C43,159,42.48,154.56,43.06,150.51Z" transform="translate(-26.39 -35)"/><path class="cls-4" d="M215,154.74c-3.36,4.53-6.12,8.57-10.23,11.35-6.17,4.17-11.4,3.4-14.51-3.27-6.33-13.58-6.24-27.55-.7-41.44a11.21,11.21,0,0,1,3-3.84c2.38-2.15,5.38-2.9,8.09-1.16s1.68,4.62.68,7A51.18,51.18,0,0,0,197.25,148c.21,2.56.27,5.69,2.93,6.64,3.11,1.12,4.93-1.72,6.52-3.92,4-5.51,6.55-11.79,9.28-18a30.29,30.29,0,0,1,1.8-4c1.94-3.06,4.4-5.93,8.39-4.72s3.45,5.09,2.87,8c-3.31,16.22-.95,32.92-4.23,49.11-2.23,11-5.84,21.5-13.2,30.3-3,3.58-6.46,6.48-11.17,7.47-1.46.31-3.05.39-4.08-.89-1.16-1.46-.72-3.13,0-4.66a6.81,6.81,0,0,1,1.23-1.81c13.58-13.49,16.31-30.91,17.73-48.81.16-2,.25-4,.32-6A9.15,9.15,0,0,0,215,154.74Z" transform="translate(-26.39 -35)"/><path class="cls-5" d="M156.49,173.32c-4.34-.28-8.78-.57-11.59-4.77-1.52-2.29-2.15-4.82-.31-7.15s4.17-2.68,6.87-1.41c4.07,1.92,8.29,2.82,12.73,1.27,1.61-.56,3.09-1.4,3.37-3.22.32-2-1.23-2.94-2.78-3.58-4.21-1.74-8.57-3.17-12.69-5.1-7.39-3.48-9-8.61-4.71-15.6A30.29,30.29,0,0,1,171,118.67c7.87-.84,13,5.59,10.71,13-.68,2.16-1.84,4-4.46,4.27-2.4.27-3.74-.84-4.54-3-.92-2.5-2.55-4.22-5.43-3.18-3.81,1.38-7.76,2.92-8.66,7.52-.66,3.33,2.31,4.29,4.55,5.31,3.65,1.66,7.54,2.8,11.18,4.48,9.15,4.23,10.24,12.41,2.54,19C171.07,171,164.06,172.86,156.49,173.32Z" transform="translate(-26.39 -35)"/><path class="cls-6" d="M90.13,97.91C90,103.55,85.2,108.58,80,108.72c-4.17.11-5.39-2.33-5.26-5.87.17-5,5.55-9.92,10.54-9.93C88.62,92.91,90.3,94.48,90.13,97.91Z" transform="translate(-26.39 -35)"/></g><g id="Layer_2" data-name="Layer 2"><path class="cls-7" d="M142.64,87.06l-14.59-2c-.8-1.78.51-1.41,1.43-1.37,5.24.21,5,.17,6.05-5.09a10.64,10.64,0,0,0-2.07-9.26c-2.71-3.5-5-7.35-7.42-11.07-.42-.64-1.2-1.28-.65-2.15s1.48-.4,2.22-.3c4.51.6,9,1.17,13.52,1.9,1.6.26,2.44,0,3.26-1.59a8.81,8.81,0,0,1,12.31-4,9.06,9.06,0,1,1-8.9,15.77c-1.41-.83-2.26-.92-3.3.26a4.69,4.69,0,0,1-1.37,1.19c-5.78,2.88-5.82,8.41-6.46,13.7-.18,1.42.48,1.76,1.66,1.88a36.52,36.52,0,0,1,3.89.59C143.23,85.69,143.69,86.22,142.64,87.06Z" transform="translate(-26.39 -35)"/></g></svg>